<svg width="296" height="45" viewBox="0 0 296 45" fill="none" xmlns="http://www.w3.org/2000/svg">
<line y1="40.5" x2="140" y2="40.5" stroke="#CECED1"/>
<line x1="156" y1="40.5" x2="296" y2="40.5" stroke="#CECED1"/>
<line y1="13.5" x2="140" y2="13.5" stroke="#FF788E"/>
<line x1="156" y1="13.5" x2="296" y2="13.5" stroke="#BFB5A9"/>
<line y1="-0.5" x2="140" y2="-0.5" transform="matrix(1 0.000301291 -2.57567e-05 1 0 4)" stroke="#FF788E"/>
<line y1="-0.5" x2="140" y2="-0.5" transform="matrix(1 0.000301291 -2.57567e-05 1 156 4)" stroke="#CECED1"/>
<path d="M123.9 28.1C123.9 34.85 119.45 40.75 112.3 40.75C110.85 40.75 108.15 40.2 106.75 39.6H106.65L104.4 41.05H103.85V10.25C103.85 9.70002 103.7 9.40002 103.35 9.30002L99.6001 8.20002L99.7501 6.95002L107.4 5.15002V20.75H107.6C109.4 18.8 112 17.2 114.85 17.2C120.3 17.2 123.9 21.9 123.9 28.1ZM120.05 29.5C120.05 23.9 117.35 20.2 113.35 20.2C110.85 20.2 108.75 21.65 107.4 23.2V36.05C108.95 37.5 110.75 38.8 113.15 38.8C117 38.8 120.05 35.1 120.05 29.5Z" fill="#0A0A1B"/>
<path d="M98.0927 31.5C98.0927 37.05 93.4927 40 85.7927 40H73.2427L73.3927 38.3L75.9927 38C76.9427 37.9 77.2927 37.7 77.2927 37.3V11.4C77.2927 11 77.0427 10.9 75.9927 10.75L73.3927 10.45L73.2427 8.75H85.9927C94.2427 8.75 96.9427 12 96.9427 15.65C96.9427 19.65 93.8427 22.9 89.3427 23.7V23.9C95.3927 24.55 98.0927 27.8 98.0927 31.5ZM93.7427 31.85C93.7427 27.2 89.8927 24.9 84.4927 24.9H81.3927V37.5L85.2927 38.2L86.7427 38.15C90.4427 37.95 93.7427 35.9 93.7427 31.85ZM92.5427 16.9C92.5427 13 90.0927 10.55 84.5427 10.55H81.3927V23.05L85.3427 23C90.3427 22.95 92.5427 19.75 92.5427 16.9Z" fill="#0A0A1B"/>
<path d="M51.042 36.45C50.1087 37.5833 48.9253 38.5666 47.492 39.4C46.0587 40.2 44.2753 40.6 42.142 40.6C40.842 40.6 39.642 40.4333 38.542 40.1C37.4753 39.8 36.542 39.3333 35.742 38.7C34.9753 38.0333 34.3753 37.2166 33.942 36.25C33.5087 35.2833 33.292 34.15 33.292 32.85C33.292 31.0833 33.6587 29.65 34.392 28.55C35.1587 27.45 36.1587 26.5833 37.392 25.95C38.6587 25.3166 40.0753 24.8666 41.642 24.6C43.2087 24.3333 44.8253 24.1666 46.492 24.1L50.942 23.95V22.95C50.942 20.75 50.4753 19.1666 49.542 18.2C48.6087 17.2333 47.092 16.75 44.992 16.75C42.9253 16.75 41.4087 17.1 40.442 17.8C39.4753 18.4666 38.842 19.4 38.542 20.6L34.592 20.15C35.0587 17.7833 36.1753 16.0666 37.942 15C39.7087 13.9 42.1087 13.35 45.142 13.35C47.0087 13.35 48.5753 13.5833 49.842 14.05C51.142 14.4833 52.192 15.1166 52.992 15.95C53.792 16.7833 54.3587 17.8166 54.692 19.05C55.0587 20.2833 55.242 21.6666 55.242 23.2V40H51.042V36.45ZM50.942 27.05L46.792 27.2C45.0253 27.2666 43.5587 27.4333 42.392 27.7C41.2253 27.9666 40.292 28.3333 39.592 28.8C38.9253 29.2333 38.442 29.7833 38.142 30.45C37.8753 31.1166 37.742 31.8833 37.742 32.75C37.742 34.05 38.1253 35.1 38.892 35.9C39.692 36.6666 40.992 37.05 42.792 37.05C45.3587 37.05 47.3587 36.4166 48.792 35.15C50.2253 33.8833 50.942 32.15 50.942 29.95V27.05Z" fill="#0A0A1B"/>
<path d="M3.9502 4.30005H15.8002C18.3335 4.30005 20.4169 4.55005 22.0502 5.05005C23.6835 5.51672 24.9669 6.16672 25.9002 7.00005C26.8669 7.80005 27.5335 8.76672 27.9002 9.90005C28.2669 11 28.4502 12.1834 28.4502 13.4501C28.4502 15.0834 28.0669 16.55 27.3002 17.85C26.5669 19.1501 25.2669 20.2334 23.4002 21.1C24.6002 21.5667 25.5835 22.1167 26.3502 22.75C27.1502 23.35 27.7835 24.0334 28.2502 24.8001C28.7502 25.5334 29.0835 26.3167 29.2502 27.1501C29.4502 27.9501 29.5502 28.7834 29.5502 29.65C29.5502 31.1167 29.3169 32.4834 28.8502 33.7501C28.4169 34.9834 27.7002 36.0667 26.7002 37.0001C25.7002 37.9334 24.3835 38.6667 22.7502 39.2001C21.1169 39.7334 19.1002 40.0001 16.7002 40.0001H3.9502V4.30005ZM16.4002 19.4C19.1002 19.4 21.0335 18.9167 22.2002 17.9501C23.3669 16.9501 23.9502 15.5001 23.9502 13.6001C23.9502 11.6667 23.3169 10.2667 22.0502 9.40005C20.8169 8.53338 18.6835 8.10005 15.6502 8.10005H8.4502V19.4H16.4002ZM16.5502 36.2001C18.1835 36.2001 19.5335 36.0501 20.6002 35.7501C21.7002 35.4501 22.5669 35.0334 23.2002 34.5001C23.8669 33.9334 24.3169 33.2667 24.5502 32.5001C24.8169 31.7001 24.9502 30.8001 24.9502 29.8001C24.9502 27.7001 24.3335 26.1001 23.1002 25.0001C21.8669 23.8667 19.8002 23.3001 16.9002 23.3001H8.4502V36.2001H16.5502Z" fill="#0A0A1B"/>
<path d="M286.231 26.672C286.231 34.232 281.247 40.84 273.239 40.84C271.615 40.84 268.591 40.224 267.023 39.552H266.911L264.391 41.176H263.775V6.68002C263.775 6.06402 263.607 5.72802 263.215 5.61602L259.015 4.38402L259.183 2.98402L267.751 0.968018V18.44H267.975C269.991 16.256 272.903 14.464 276.095 14.464C282.199 14.464 286.231 19.728 286.231 26.672ZM281.919 28.24C281.919 21.968 278.895 17.824 274.415 17.824C271.615 17.824 269.263 19.448 267.751 21.184V35.576C269.487 37.2 271.503 38.656 274.191 38.656C278.503 38.656 281.919 34.512 281.919 28.24Z" fill="#0A0A1B"/>
<path d="M257.327 30.48C257.327 36.696 252.175 40 243.551 40H229.495L229.663 38.096L232.575 37.76C233.639 37.648 234.031 37.424 234.031 36.976V7.968C234.031 7.52 233.751 7.408 232.575 7.24L229.663 6.904L229.495 5H243.775C253.015 5 256.039 8.64 256.039 12.728C256.039 17.208 252.567 20.848 247.527 21.744V21.968C254.303 22.696 257.327 26.336 257.327 30.48ZM252.455 30.872C252.455 25.664 248.143 23.088 242.095 23.088H238.623V37.2L242.991 37.984L244.615 37.928C248.759 37.704 252.455 35.408 252.455 30.872ZM251.111 14.128C251.111 9.76 248.367 7.016 242.151 7.016H238.623V21.016L243.047 20.96C248.647 20.904 251.111 17.32 251.111 14.128Z" fill="#0A0A1B"/>
<path d="M207.042 36.45C206.109 37.5833 204.925 38.5666 203.492 39.4C202.059 40.2 200.275 40.6 198.142 40.6C196.842 40.6 195.642 40.4333 194.542 40.1C193.475 39.8 192.542 39.3333 191.742 38.7C190.975 38.0333 190.375 37.2166 189.942 36.25C189.509 35.2833 189.292 34.15 189.292 32.85C189.292 31.0833 189.659 29.65 190.392 28.55C191.159 27.45 192.159 26.5833 193.392 25.95C194.659 25.3166 196.075 24.8666 197.642 24.6C199.209 24.3333 200.825 24.1666 202.492 24.1L206.942 23.95V22.95C206.942 20.75 206.475 19.1666 205.542 18.2C204.609 17.2333 203.092 16.75 200.992 16.75C198.925 16.75 197.409 17.1 196.442 17.8C195.475 18.4666 194.842 19.4 194.542 20.6L190.592 20.15C191.059 17.7833 192.175 16.0666 193.942 15C195.709 13.9 198.109 13.35 201.142 13.35C203.009 13.35 204.575 13.5833 205.842 14.05C207.142 14.4833 208.192 15.1166 208.992 15.95C209.792 16.7833 210.359 17.8166 210.692 19.05C211.059 20.2833 211.242 21.6666 211.242 23.2V40H207.042V36.45ZM206.942 27.05L202.792 27.2C201.025 27.2666 199.559 27.4333 198.392 27.7C197.225 27.9666 196.292 28.3333 195.592 28.8C194.925 29.2333 194.442 29.7833 194.142 30.45C193.875 31.1166 193.742 31.8833 193.742 32.75C193.742 34.05 194.125 35.1 194.892 35.9C195.692 36.6666 196.992 37.05 198.792 37.05C201.359 37.05 203.359 36.4166 204.792 35.15C206.225 33.8833 206.942 32.15 206.942 29.95V27.05Z" fill="#0A0A1B"/>
<path d="M159.95 4.30005H171.8C174.334 4.30005 176.417 4.55005 178.05 5.05005C179.684 5.51672 180.967 6.16672 181.9 7.00005C182.867 7.80005 183.534 8.76672 183.9 9.90005C184.267 11.0001 184.45 12.1834 184.45 13.4501C184.45 15.0834 184.067 16.55 183.3 17.85C182.567 19.1501 181.267 20.2334 179.4 21.1C180.6 21.5667 181.584 22.1167 182.35 22.75C183.15 23.35 183.784 24.0334 184.25 24.8001C184.75 25.5334 185.084 26.3167 185.25 27.1501C185.45 27.9501 185.55 28.7834 185.55 29.65C185.55 31.1167 185.317 32.4834 184.85 33.7501C184.417 34.9834 183.7 36.0667 182.7 37.0001C181.7 37.9334 180.384 38.6667 178.75 39.2001C177.117 39.7334 175.1 40.0001 172.7 40.0001H159.95V4.30005ZM172.4 19.4C175.1 19.4 177.034 18.9167 178.2 17.9501C179.367 16.9501 179.95 15.5001 179.95 13.6001C179.95 11.6667 179.317 10.2667 178.05 9.40005C176.817 8.53338 174.684 8.10005 171.65 8.10005H164.45V19.4H172.4ZM172.55 36.2001C174.184 36.2001 175.534 36.0501 176.6 35.7501C177.7 35.4501 178.567 35.0334 179.2 34.5001C179.867 33.9334 180.317 33.2667 180.55 32.5001C180.817 31.7001 180.95 30.8001 180.95 29.8001C180.95 27.7001 180.334 26.1001 179.1 25.0001C177.867 23.8667 175.8 23.3001 172.9 23.3001H164.45V36.2001H172.55Z" fill="#0A0A1B"/>
</svg>
