<svg width="296" height="45" viewBox="0 0 296 45" fill="none" xmlns="http://www.w3.org/2000/svg">
<line x1="156" y1="38.5" x2="296" y2="38.5" stroke="#CECED1"/>
<line y1="38.5" x2="140" y2="38.5" stroke="#CECED1"/>
<line x1="156" y1="11.5" x2="296" y2="11.5" stroke="#BFB5A9"/>
<line y1="11.5" x2="140" y2="11.5" stroke="#BFB5A9"/>
<line y1="16.5" x2="140" y2="16.5" stroke="#FF788E"/>
<line y1="-0.5" x2="140" y2="-0.5" transform="matrix(1 0.000301291 -2.57567e-05 1 156 2)" stroke="#CECED1"/>
<line y1="-0.5" x2="140" y2="-0.5" transform="matrix(1 0.000301291 -2.57567e-05 1 0 2)" stroke="#CECED1"/>
<path d="M287.576 35.3681C285.84 37.4961 284.16 38.8401 282.368 38.8401C280.352 38.8401 278.784 37.6081 278.784 34.6961H278.56C276.432 36.9921 274.248 38.8401 271.56 38.8401C267.864 38.8401 264.728 36.0961 264.728 32.3441C264.728 27.6401 268.984 25.0641 279.008 22.6001V22.0961C279.064 16.1041 276.936 14.5361 273.296 14.5361C271.168 14.5361 268.872 15.4321 268.872 15.9921C268.872 16.2721 269.992 17.1681 269.992 18.5681C269.992 19.8561 268.872 21.0881 267.248 21.0881C265.68 21.0881 264.56 20.0801 264.56 18.6241C264.56 15.9361 270.384 12.1281 274.92 12.1281C281.136 12.1281 283.32 14.6481 282.984 23.0481L282.536 33.7441C282.48 35.0321 282.928 35.7041 283.768 35.7041C284.552 35.7041 285.448 35.0881 286.624 34.1361L287.576 35.3681ZM278.56 32.7921L278.896 24.3921C271.392 26.3521 268.816 28.4241 268.816 31.3921C268.816 34.0801 270.72 35.7041 273.072 35.7041C275.032 35.7041 276.712 34.4721 278.56 32.7921Z" fill="#0A0A1B"/>
<path d="M263.57 37.9999H249.178L249.346 36.0959L252.538 35.7039C253.994 35.4239 253.994 34.8079 252.93 31.5039L250.858 25.3439H238.762L236.746 31.4479C235.682 34.4719 235.57 35.4239 236.914 35.7039L239.714 36.0959L239.882 37.9999H228.346L228.514 36.0959L230.754 35.7039C232.434 35.3119 232.994 34.6399 235.458 27.6959L243.242 5.74394V3.95194L247.89 1.99194L258.698 34.4719C258.866 35.0319 259.258 35.4239 260.098 35.5359L263.402 36.0959L263.57 37.9999ZM250.13 23.0479L245.146 7.31194H244.866L239.546 23.0479H250.13Z" fill="#0A0A1B"/>
<path d="M209.142 34.45C208.208 35.5833 207.025 36.5666 205.592 37.4C204.158 38.2 202.375 38.6 200.242 38.6C198.942 38.6 197.742 38.4333 196.642 38.1C195.575 37.8 194.642 37.3333 193.842 36.7C193.075 36.0333 192.475 35.2166 192.042 34.25C191.608 33.2833 191.392 32.15 191.392 30.85C191.392 29.0833 191.758 27.65 192.492 26.55C193.258 25.45 194.258 24.5833 195.492 23.95C196.758 23.3166 198.175 22.8666 199.742 22.6C201.308 22.3333 202.925 22.1666 204.592 22.1L209.042 21.95V20.95C209.042 18.75 208.575 17.1666 207.642 16.2C206.708 15.2333 205.192 14.75 203.092 14.75C201.025 14.75 199.508 15.1 198.542 15.8C197.575 16.4666 196.942 17.4 196.642 18.6L192.692 18.15C193.158 15.7833 194.275 14.0666 196.042 13C197.808 11.9 200.208 11.35 203.242 11.35C205.108 11.35 206.675 11.5833 207.942 12.05C209.242 12.4833 210.292 13.1166 211.092 13.95C211.892 14.7833 212.458 15.8166 212.792 17.05C213.158 18.2833 213.342 19.6666 213.342 21.2V38H209.142V34.45ZM209.042 25.05L204.892 25.2C203.125 25.2666 201.658 25.4333 200.492 25.7C199.325 25.9666 198.392 26.3333 197.692 26.8C197.025 27.2333 196.542 27.7833 196.242 28.45C195.975 29.1166 195.842 29.8833 195.842 30.75C195.842 32.05 196.225 33.1 196.992 33.9C197.792 34.6666 199.092 35.05 200.892 35.05C203.458 35.05 205.458 34.4166 206.892 33.15C208.325 31.8833 209.042 30.15 209.042 27.95V25.05Z" fill="#0A0A1B"/>
<path d="M170.45 2.30005H175.3L189.15 38.0001H184.15L180.4 28.0501H165.1L161.35 38.0001H156.55L170.45 2.30005ZM179 24.0501L172.7 7.50005L166.5 24.0501H179Z" fill="#0A0A1B"/>
<path d="M127.2 32.05C127.2 34.9 127.8 35.8 128.7 35.8C129.5 35.8 130.2 35.4 130.45 35.05C130.65 34.8 130.75 34.7 130.95 34.85L131.45 35.25C131.6 35.4 131.7 35.6501 131.4 36.1501C131 36.9001 130.05 38.6 127.5 38.6C125.7 38.6 124.4 37.3 123.95 35.25H123.85C122.8 36.5 121.15 37.55 118.9 38.3C117.95 38.6 117.05 38.6 115.95 38.6C114.75 38.6 112.95 37.6001 112.95 34.4501C112.95 32.1501 114 30.1501 117.95 28.4001C120.2 27.4001 122.8 26.2 123.6 25.5V22.3C123.5 21.45 123.45 20.15 122.9 19.5C122.35 18.85 121.35 18.4 119.9 18.4C118.9 18.4 117.35 18.8 116.65 19.45C115.95 20.1 116.4 20.85 116.4 21.75C116.4 23.5 115.8 24.6 113.75 24.6C112.95 24.6 112.55 24.15 112.55 23C112.55 21.4 113.95 19.5 116 18.3C118.1 17.05 119.85 16.55 122.1 16.55C124.45 16.55 125.4 17.25 126.1 17.9C127.15 18.95 127.2 20.1 127.2 21.45V32.05ZM123.55 33.1501V27C121.75 28.3501 116.85 29.35 116.85 33.5C116.85 35.35 117.95 36.25 119.45 36.25C120.9 36.25 123.55 34.5001 123.55 33.1501Z" fill="#0A0A1B"/>
<path d="M96.4924 24.1H84.1924C83.6924 25.35 80.9424 32.95 80.6924 34C80.6424 34.35 80.5424 34.85 80.5424 35.1C80.5424 35.8 81.1424 36.2 82.2424 36.2H84.5924C84.9424 36.2 85.0924 36.3 85.0924 36.55V37.7C85.0924 38.05 84.9424 38.15 84.6924 38.15C83.9924 38.15 81.9424 38 78.9924 38C75.3424 38 74.2424 38.15 73.5424 38.15C73.2924 38.15 73.1924 38.05 73.1924 37.75V36.55C73.1924 36.3 73.3924 36.2 73.5924 36.2H75.3424C76.8424 36.2 77.5424 35.5 78.2424 33.9C78.5924 33.1 82.2424 23.85 83.6924 19.75C84.0424 18.75 88.0924 8.00003 88.5424 6.65003C88.6924 6.15003 88.9424 5.50002 88.5924 4.95003C88.4424 4.75003 88.2424 4.50003 88.2424 4.30003C88.2424 4.15002 88.3424 3.95002 88.6924 3.85003C90.0924 3.55003 92.2924 2.05002 92.8424 1.35002C93.0924 1.10002 93.2424 0.900024 93.4924 0.900024C93.7924 0.900024 93.8924 1.20002 94.0424 1.75003C94.9924 4.90002 98.8924 16.1 99.8424 19.3C100.992 23.2 104.242 32.5 104.942 33.95C105.792 35.6 107.092 36.2 108.342 36.2H109.992C110.292 36.2 110.392 36.35 110.392 36.55V37.8C110.392 38.05 110.242 38.15 109.892 38.15C108.992 38.15 107.942 38 103.892 38C99.7424 38 97.9924 38.15 96.8424 38.15C96.5924 38.15 96.4424 38 96.4424 37.7V36.55C96.4424 36.25 96.5924 36.2 96.8924 36.2H98.1424C99.5424 36.2 99.9924 35.7 99.6424 34.3C99.2424 32.5 97.1924 26.1 96.4924 24.1ZM84.8424 22.3H95.8924C95.4424 20.8 91.3924 8.30002 91.1424 7.55002C90.9924 7.20002 90.8924 6.85003 90.7424 6.85003C90.5424 6.85003 90.3424 7.20002 90.1924 7.60003C89.9424 8.25003 85.1924 21.05 84.8424 22.3Z" fill="#0A0A1B"/>
<path d="M53.1416 34.45C52.2083 35.5833 51.0249 36.5666 49.5916 37.4C48.1583 38.2 46.3749 38.6 44.2416 38.6C42.9416 38.6 41.7416 38.4333 40.6416 38.1C39.5749 37.8 38.6416 37.3333 37.8416 36.7C37.0749 36.0333 36.4749 35.2166 36.0416 34.25C35.6083 33.2833 35.3916 32.15 35.3916 30.85C35.3916 29.0833 35.7583 27.65 36.4916 26.55C37.2583 25.45 38.2583 24.5833 39.4916 23.95C40.7583 23.3166 42.1749 22.8666 43.7416 22.6C45.3083 22.3333 46.9249 22.1666 48.5916 22.1L53.0416 21.95V20.95C53.0416 18.75 52.5749 17.1666 51.6416 16.2C50.7083 15.2333 49.1916 14.75 47.0916 14.75C45.0249 14.75 43.5083 15.1 42.5416 15.8C41.5749 16.4666 40.9416 17.4 40.6416 18.6L36.6916 18.15C37.1583 15.7833 38.2749 14.0666 40.0416 13C41.8083 11.9 44.2083 11.35 47.2416 11.35C49.1083 11.35 50.6749 11.5833 51.9416 12.05C53.2416 12.4833 54.2916 13.1166 55.0916 13.95C55.8916 14.7833 56.4583 15.8166 56.7916 17.05C57.1583 18.2833 57.3416 19.6666 57.3416 21.2V38H53.1416V34.45ZM53.0416 25.05L48.8916 25.2C47.1249 25.2666 45.6583 25.4333 44.4916 25.7C43.3249 25.9666 42.3916 26.3333 41.6916 26.8C41.0249 27.2333 40.5416 27.7833 40.2416 28.45C39.9749 29.1166 39.8416 29.8833 39.8416 30.75C39.8416 32.05 40.2249 33.1 40.9916 33.9C41.7916 34.6666 43.0916 35.05 44.8916 35.05C47.4583 35.05 49.4583 34.4166 50.8916 33.15C52.3249 31.8833 53.0416 30.15 53.0416 27.95V25.05Z" fill="#0A0A1B"/>
<path d="M14.4498 2.30005H19.2998L33.1498 38.0001H28.1498L24.3998 28.0501H9.0998L5.3498 38.0001H0.549805L14.4498 2.30005ZM22.9998 24.0501L16.6998 7.50005L10.4998 24.0501H22.9998Z" fill="#0A0A1B"/>
</svg>
