<svg width="32" height="32" viewBox="0 0 155 155" fill="none" xmlns="http://www.w3.org/2000/svg">
<path fill-rule="evenodd" clip-rule="evenodd" d="M155 123.247H0V120.247H155V123.247Z" fill="#CACAC6"/>
<path fill-rule="evenodd" clip-rule="evenodd" d="M155 35H0V32H155V35Z" fill="#CACAC6"/>
<path fill-rule="evenodd" clip-rule="evenodd" d="M155 57H0V54H155V57Z" fill="#59A6CD"/>
<path d="M146.816 120H134.076L133.656 115.8C129.456 119.44 123.996 121.54 117.836 121.54C104.676 121.54 94.4563 111.74 94.4563 98.9999C94.4563 86.2599 104.536 76.4599 118.116 76.4599C123.996 76.4599 128.896 78.5599 132.816 81.6399V78.4199C132.816 70.8599 129.316 66.9399 119.236 66.9399C113.916 66.9399 109.016 68.0599 104.116 69.7399L106.076 58.3999C111.256 56.8599 116.156 56.1599 121.196 56.1599C137.576 56.1599 146.256 63.5799 146.256 77.4399V108.24L146.816 120ZM120.636 110.9C127.916 110.9 133.516 105.58 133.516 98.8599C133.516 91.9999 127.776 86.6799 120.636 86.6799C113.496 86.6799 107.896 91.9999 107.896 98.8599C107.896 105.72 113.496 110.9 120.636 110.9Z" fill="#1683BB"/>
<path fill-rule="evenodd" clip-rule="evenodd" d="M41.3999 33L1.67993 120H17.9199L29.9599 91.86H66.0799L78.1199 120H94.2199L54.6199 33H41.3999ZM60.3399 78.7H35.5599L48.0199 49.86L60.3399 78.7Z" fill="#1683BB"/>
</svg>
