<svg width="32" height="32" viewBox="0 0 32 32" fill="none" xmlns="http://www.w3.org/2000/svg">
<g clip-path="url(#clip0_10089_8520)">
<path fill-rule="evenodd" clip-rule="evenodd" d="M30 2H2V30H30V2ZM0 0V32H32V0H0Z" fill="#F2920C"/>
<path d="M8.10658 6.7886C9.07224 6.04251 10.4303 6.08175 11.3513 6.88234L14.5975 9.70425L11.0934 12.4115C10.1278 13.1576 8.76975 13.1184 7.84877 12.3178L4.60254 9.49586L8.10658 6.7886Z" fill="#F2920C"/>
<path d="M13.0283 14.858C13.2676 13.6614 14.3183 12.8 15.5386 12.8H19.8399L18.9715 17.1421C18.7322 18.3387 17.6815 19.2 16.4612 19.2H12.1599L13.0283 14.858Z" fill="#F2920C"/>
<path d="M7.26831 21.2579C7.50763 20.0613 8.5583 19.2 9.7786 19.2H14.0799L13.2115 23.542C12.9722 24.7386 11.9215 25.6 10.7012 25.6H6.3999L7.26831 21.2579Z" fill="#F2920C"/>
<path d="M20.9066 19.5885C21.8723 18.8424 23.2303 18.8817 24.1513 19.6823L27.3975 22.5042L23.8935 25.2114C22.9278 25.9575 21.5698 25.9183 20.6488 25.1177L17.4026 22.2958L20.9066 19.5885Z" fill="#F2920C"/>
<path d="M18.7883 8.45797C19.0277 7.26136 20.0783 6.40002 21.2986 6.40002H25.5999L24.7315 10.7421C24.4922 11.9387 23.4415 12.8 22.2212 12.8H17.9199L18.7883 8.45797Z" fill="#F2920C"/>
</g>
<defs>
<clipPath id="clip0_10089_8520">
<rect width="32" height="32" fill="white"/>
</clipPath>
</defs>
</svg>