<svg width="32" height="32" viewBox="0 0 32 32" fill="none" xmlns="http://www.w3.org/2000/svg">
<rect width="32" height="32" fill="#191919"/>
<path d="M26.0668 12.2567C26.0668 13.1417 25.1692 14.5576 24.6256 16.4286C24.4928 16.8142 24.3222 16.9848 24.1199 16.9848C23.8734 16.9848 23.7596 16.7194 23.6838 16.3527C23.6016 15.9482 23.551 15.2402 23.551 14.4944C23.551 13.5209 23.6395 12.4843 23.886 11.9723C24.2147 11.3275 24.6635 11.1885 25.0997 11.1885C25.7128 11.1885 26.0668 11.6309 26.0668 12.2567ZM25.0744 18.7737C25.0744 19.5828 24.417 20.0758 23.7154 20.0758C23.1591 20.0758 22.6787 19.7345 22.6787 19.0455C22.6787 18.2111 23.374 17.7054 24.0251 17.7054C24.575 17.7054 25.0744 18.072 25.0744 18.7737Z" fill="white"/>
<path d="M17.6571 10.708C17.9415 10.708 18.0427 10.8913 18.0427 11.0746C18.0427 11.6625 17.2462 14.8735 17.2462 15.1264C17.2462 15.2086 17.2715 15.2275 17.2968 15.2275C17.4485 15.2275 18.1817 13.426 19.7936 13.426C20.5647 13.426 21.1842 13.8875 21.1842 15.0316C21.1842 16.0493 20.4257 17.4272 20.4257 18.1541C20.4257 18.3754 20.4889 18.5713 20.6912 18.5713C20.9377 18.5713 21.0262 18.2174 21.2032 18.2174C21.279 18.2174 21.3612 18.2806 21.3612 18.4892C21.3612 19.1276 20.6532 20.12 19.4586 20.12C18.6558 20.12 18.0932 19.6585 18.0932 18.7104C18.0932 17.6611 18.8328 16.4159 18.8328 15.7648C18.8328 15.4424 18.7443 15.2212 18.4472 15.2212C17.8657 15.2212 17.1514 16.4538 16.9112 17.8381C16.8606 18.1415 16.8164 18.6914 16.8164 18.9759C16.8164 19.3109 16.7216 19.6206 16.4624 19.785C16.2222 19.943 15.4637 20.0694 14.7747 20.0694C14.3259 20.0694 14.2627 19.8735 14.2627 19.6649C14.2627 19.3867 14.4397 18.919 14.6167 18.2047C14.8695 17.1491 15.6027 13.5967 15.6027 12.8698C15.6027 12.5537 15.4574 12.3578 15.3373 12.2819C15.2298 12.1998 15.0907 12.0986 15.0907 11.9469C15.0907 11.5677 15.3752 11.378 16.1084 11.1062C16.8922 10.8091 17.4169 10.708 17.6571 10.708Z" fill="white"/>
<path d="M9.02765 13.4263C9.27417 13.4263 9.54598 13.5021 9.72296 13.8308C9.89363 14.1469 10.0137 14.7031 10.2286 15.3226C10.2602 15.4111 10.2982 15.5312 10.3614 15.5312C10.4246 15.5312 10.4878 15.4237 10.5447 15.3162C11.1578 14.09 11.8152 13.4263 12.5232 13.4263C13.0541 13.4263 13.5219 13.736 13.5219 14.5388C13.5219 15.2783 12.9972 15.8662 12.4157 15.8662C12.1313 15.8662 12.2134 15.4806 11.8531 15.4806C11.4612 15.4806 10.8671 16.3086 10.8671 16.5615C10.8671 17.0419 11.6951 18.3819 12.3335 18.3819C12.795 18.3819 12.9467 17.9395 13.1363 17.9395C13.2248 17.9395 13.2943 18.0343 13.2943 18.2555C13.2943 18.9382 12.7634 20.1518 11.3159 20.1518C10.6205 20.1518 10.0327 19.5892 9.53965 18.7802C9.47012 18.6601 9.40059 18.54 9.32474 18.54C9.26153 18.54 9.19832 18.6411 9.12247 18.7738C8.52829 19.7536 7.99101 20.1581 7.33995 20.1581C6.82795 20.1581 6.32227 19.8421 6.32227 19.0709C6.32227 18.363 6.83427 17.832 7.33363 17.832C7.56118 17.832 7.54854 18.1165 7.91516 18.1165C8.25649 18.1165 8.72425 17.5412 8.72425 17.3643C8.72425 17.0798 8.20592 16.1064 7.90252 15.5248C7.63703 15.114 7.49165 15.0697 7.3273 15.0002C7.11871 14.9117 6.96069 14.7916 6.96069 14.602C6.96069 13.9636 8.64839 13.4263 9.02765 13.4263Z" fill="white"/>
</svg>