<svg width="48" height="48" viewBox="0 0 48 48" fill="none" xmlns="http://www.w3.org/2000/svg">
<path d="M30.5078 16.9688C30.5911 16.9688 30.6328 17.0521 30.6328 17.2188C30.6328 17.3854 30.5911 17.4896 30.5078 17.5313C29.7057 17.75 29.0651 18.1146 28.5859 18.625C28.4089 18.8125 28.2161 19.0313 28.0078 19.2813L24.9922 22.9063C24.9505 22.9792 24.9297 23.0469 24.9297 23.1094C24.9297 23.2344 25.3828 23.849 26.2891 24.9531C27.1953 26.0469 28.4453 27.599 30.0391 29.6094C30.1536 29.7552 30.3828 29.901 30.7266 30.0469C31.0703 30.1927 31.3047 30.3125 31.4297 30.4063C31.5547 30.4896 31.6172 30.6042 31.6172 30.75C31.6172 30.8958 31.5547 30.9896 31.4297 31.0313L25.2734 31.0313C25.1693 31.0313 25.1172 30.9479 25.1172 30.7813C25.1172 30.6146 25.2005 30.5208 25.3672 30.5C25.5443 30.4688 25.7422 30.4375 25.9609 30.4063C26.513 30.3229 26.7891 30.1042 26.7891 29.75C26.7891 29.5104 26.6589 29.2448 26.3984 28.9531L23.7109 25.5781C23.6276 25.4635 23.5599 25.375 23.5078 25.3125C23.4661 25.25 23.3776 25.2188 23.2422 25.2188C23.1068 25.2188 22.9974 25.276 22.9141 25.3906C22.8411 25.4948 22.763 25.5885 22.6797 25.6719L20.2266 28.625C20.0078 28.875 19.8984 29.1667 19.8984 29.5C19.8984 29.8333 20.112 30.099 20.5391 30.2969C20.9766 30.4844 21.362 30.5781 21.6953 30.5781C21.7682 30.5781 21.8047 30.6563 21.8047 30.8125C21.8047 30.9583 21.7682 31.0313 21.6953 31.0313L16.6797 31.0313C16.513 31.0313 16.4297 30.9375 16.4297 30.75C16.4297 30.6042 16.7161 30.3958 17.2891 30.125C17.8724 29.8542 18.2266 29.6458 18.3516 29.5L22.6797 24.2969C22.6693 24.276 22.6484 24.25 22.6172 24.2188C22.5964 24.1875 22.5391 24.1146 22.4453 24C22.3516 23.8854 22.2057 23.7083 22.0078 23.4688C21.8099 23.2188 21.2839 22.5729 20.4297 21.5313C19.5859 20.4792 18.6953 19.3698 17.7578 18.2031C17.6328 18.0677 17.3724 17.9167 16.9766 17.75C16.5807 17.5729 16.3828 17.4167 16.3828 17.2812C16.4036 17.0729 16.5286 16.9688 16.7578 16.9688L22.5703 16.9688C22.6536 16.9688 22.6901 17.0365 22.6797 17.1719C22.6797 17.2969 22.6016 17.3802 22.4453 17.4219C22.2891 17.4531 22.1172 17.5 21.9297 17.5625C21.4297 17.7083 21.1797 17.9635 21.1797 18.3281C21.1797 18.5677 21.2266 18.7344 21.3203 18.8281L23.7422 21.8281C23.8255 21.9219 23.9089 22.026 23.9922 22.1406C24.0859 22.2448 24.1641 22.2969 24.2266 22.2969C24.2995 22.2969 24.3776 22.2448 24.4609 22.1406L26.7578 19.4688C27.0182 19.1667 27.1484 18.8646 27.1484 18.5625C27.1484 18.2604 27.0651 18.0521 26.8984 17.9375C26.7318 17.8125 26.5443 17.724 26.3359 17.6719C26.138 17.6094 25.9557 17.5521 25.7891 17.5C25.6224 17.4479 25.5391 17.349 25.5391 17.2031C25.5391 17.0469 25.5964 16.9688 25.7109 16.9688L30.5078 16.9688Z" fill="#A5270E"/>
<path d="M40 8V40H8V8H40ZM10 38H38V10H10V38Z" fill="#A5270E"/>
<rect x="10" y="17" width="4" height="2" fill="#A5270E"/>
<rect x="10" y="29" width="4" height="2" fill="#A5270E"/>
<rect x="17" y="34" width="2" height="4" fill="#A5270E"/>
<rect x="29" y="34" width="2" height="4" fill="#A5270E"/>
<rect x="34" y="29" width="4" height="2" fill="#A5270E"/>
<rect x="34" y="17" width="4" height="2" fill="#A5270E"/>
<rect x="29" y="10" width="2" height="4" fill="#A5270E"/>
<rect x="17" y="10" width="2" height="4" fill="#A5270E"/>
</svg>
