<svg width="16" height="16" viewBox="0 0 16 16" fill="none" xmlns="http://www.w3.org/2000/svg">
<path fill-rule="evenodd" clip-rule="evenodd" d="M8.00098 3.00195C9.64529 3.00241 10.9784 4.33607 10.9785 5.98047V7.63281H11.167C11.443 7.63294 11.667 7.85675 11.667 8.13281V12.4629C11.6668 12.7388 11.4429 12.9628 11.167 12.9629H4.83301C4.55716 12.9627 4.33321 12.7387 4.33301 12.4629V8.13281C4.33301 7.85679 4.55703 7.63301 4.83301 7.63281H5.02246V5.98047C5.02256 4.33579 6.35627 3.00195 8.00098 3.00195ZM8.00098 4.33203C7.09081 4.33203 6.35264 5.07033 6.35254 5.98047V7.63281H9.64844V5.98047C9.64834 5.07061 8.91075 4.33249 8.00098 4.33203Z" fill="#575551"/>
</svg>
