<svg width="296" height="48" viewBox="0 0 296 48" fill="none" xmlns="http://www.w3.org/2000/svg">
<line y1="40.61" x2="140" y2="40.61" stroke="#1683BB"/>
<line x1="156" y1="40.61" x2="296" y2="40.61" stroke="#1683BB"/>
<path d="M0 13.11L140 13.11" stroke="#FF3D5D" stroke-opacity="0.7"/>
<path d="M156 13.11L296 13.11" stroke="#BFB5A9"/>
<line y1="-0.5" x2="140" y2="-0.5" transform="matrix(1 0.000301291 -2.57567e-05 1 0 5.10999)" stroke="#FF3D5D" stroke-opacity="0.7"/>
<line y1="-0.5" x2="140" y2="-0.5" transform="matrix(1 0.000301291 -2.57567e-05 1 156 5.10999)" stroke="#1683BB"/>
<path d="M125.67 27.438C125.67 34.974 121.686 40.734 114.486 40.734C111.654 40.734 109.494 39.678 107.67 37.95H107.526L105.51 40.11C105.222 40.35 105.126 40.446 104.886 40.446H104.454C104.118 40.446 104.07 40.35 104.07 40.062V9.91797C104.07 6.26996 104.022 5.98197 102.822 5.98197L100.47 5.93397C100.182 5.93397 100.086 5.83796 100.086 5.54996V4.92596C100.086 4.63797 100.182 4.58997 100.47 4.58997H108.006C108.294 4.58997 108.438 4.78196 108.438 5.16596V19.23H108.534C110.262 16.446 112.806 15.006 116.262 15.006C121.542 15.006 125.67 19.47 125.67 27.438ZM120.63 27.87C120.63 20.862 118.374 17.262 114.39 17.262C111.462 17.262 109.734 18.942 108.438 21.438V36.366C109.542 37.95 111.558 39.006 114.006 39.006C119.286 39.006 120.63 34.254 120.63 27.87Z" fill="#191917"/>
<path d="M97.6223 30.846C97.6223 37.518 91.0463 40.11 84.6623 40.11H71.8942C71.6062 40.11 71.5103 40.062 71.5103 39.774V39.054C71.5103 38.766 71.6062 38.67 71.8942 38.67L74.3903 38.622C75.5423 38.574 75.5902 38.286 75.5902 34.638V13.182C75.5902 9.53396 75.5423 9.24596 74.3903 9.19796L71.8942 9.14996C71.6062 9.14996 71.5103 9.05396 71.5103 8.76596V8.04596C71.5103 7.75796 71.6062 7.70996 71.8942 7.70996H83.5103C88.6943 7.70996 95.7982 8.71796 95.7982 15.342C95.7982 19.662 92.4863 21.774 87.9263 22.878V22.974C92.2463 23.118 97.6223 24.798 97.6223 30.846ZM90.2783 15.774C90.2783 10.59 87.9263 9.38996 83.8463 9.38996H80.7262V22.446H83.5103C88.1663 22.446 90.2783 20.67 90.2783 15.774ZM91.8142 31.278C91.8142 26.094 89.6543 24.126 83.3183 24.126H80.7262V38.43H84.9502C89.5103 38.43 91.8142 36.366 91.8142 31.278Z" fill="#191917"/>
<path d="M42.6052 40.7236C40.9461 40.7236 39.4404 40.4111 38.0881 39.7861C36.7358 39.1498 35.662 38.235 34.8665 37.0418C34.0711 35.8373 33.6733 34.3827 33.6733 32.6782C33.6733 31.1782 33.9688 29.9623 34.5597 29.0305C35.1506 28.0873 35.9404 27.3486 36.929 26.8146C37.9177 26.2805 39.0086 25.8827 40.2018 25.6214C41.4063 25.3486 42.6165 25.1327 43.8324 24.9736C45.4233 24.7691 46.7131 24.6157 47.7018 24.5134C48.7018 24.3998 49.429 24.2123 49.8836 23.9509C50.3495 23.6896 50.5824 23.235 50.5824 22.5873V22.4509C50.5824 20.7691 50.1222 19.4623 49.2018 18.5305C48.2927 17.5986 46.912 17.1327 45.0597 17.1327C43.1392 17.1327 41.6336 17.5532 40.5427 18.3941C39.4518 19.235 38.6847 20.1327 38.2415 21.0873L34.4233 19.7236C35.1052 18.1327 36.0143 16.8941 37.1506 16.0077C38.2983 15.11 39.5483 14.485 40.9006 14.1327C42.2643 13.7691 43.6052 13.5873 44.9233 13.5873C45.7642 13.5873 46.7302 13.6896 47.8211 13.8941C48.9233 14.0873 49.9858 14.4907 51.0086 15.1043C52.0427 15.718 52.9006 16.6441 53.5824 17.8827C54.2643 19.1214 54.6052 20.7805 54.6052 22.86V40.11H50.5824V36.5646H50.3779C50.1052 37.1327 49.6506 37.7407 49.0143 38.3884C48.3779 39.0361 47.5313 39.5873 46.4745 40.0418C45.4177 40.4964 44.1279 40.7236 42.6052 40.7236ZM43.2188 37.11C44.8097 37.11 46.1506 36.7975 47.2415 36.1725C48.3438 35.5475 49.1733 34.7407 49.7302 33.7521C50.2983 32.7634 50.5824 31.7236 50.5824 30.6327V26.9509C50.412 27.1555 50.037 27.343 49.4574 27.5134C48.8892 27.6725 48.2302 27.8146 47.4802 27.9396C46.7415 28.0532 46.0199 28.1555 45.3154 28.2464C44.6222 28.3259 44.0597 28.3941 43.6279 28.4509C42.5824 28.5873 41.6052 28.8089 40.6961 29.1157C39.7983 29.4111 39.0711 29.86 38.5143 30.4623C37.9688 31.0532 37.6961 31.86 37.6961 32.8827C37.6961 34.2805 38.2131 35.3373 39.2472 36.0532C40.2927 36.7577 41.6165 37.11 43.2188 37.11Z" fill="#191917"/>
<path d="M4.22705 40.11V5.20093H16.4316C18.8634 5.20093 20.8691 5.62138 22.4486 6.46229C24.0282 7.29184 25.2043 8.41115 25.9771 9.82025C26.7498 11.218 27.1361 12.7691 27.1361 14.4737C27.1361 15.9737 26.8691 17.2123 26.335 18.1896C25.8123 19.1668 25.1191 19.9396 24.2555 20.5077C23.4032 21.0759 22.4771 21.4964 21.4771 21.7691V22.11C22.5452 22.1782 23.6191 22.5532 24.6986 23.235C25.7782 23.9168 26.6816 24.8941 27.4089 26.1668C28.1361 27.4396 28.4998 28.9964 28.4998 30.8373C28.4998 32.5873 28.1021 34.1612 27.3066 35.5589C26.5111 36.9566 25.2555 38.0646 23.5396 38.8827C21.8236 39.7009 19.5907 40.11 16.8407 40.11H4.22705ZM8.45432 36.36H16.8407C19.6021 36.36 21.5623 35.8259 22.7214 34.7577C23.8918 33.6782 24.4771 32.3714 24.4771 30.8373C24.4771 29.6555 24.1759 28.5646 23.5736 27.5646C22.9714 26.5532 22.1134 25.7464 20.9998 25.1441C19.8861 24.5305 18.568 24.2237 17.0452 24.2237H8.45432V36.36ZM8.45432 20.5418H16.2952C17.568 20.5418 18.7157 20.2918 19.7384 19.7918C20.7725 19.2918 21.5907 18.5873 22.193 17.6782C22.8066 16.7691 23.1134 15.7009 23.1134 14.4737C23.1134 12.9396 22.5793 11.6384 21.5111 10.5702C20.443 9.4907 18.7498 8.95093 16.4316 8.95093H8.45432V20.5418Z" fill="#191917"/>
<path d="M285.7 26.514C285.7 34.5995 281.425 40.7795 273.7 40.7795C270.662 40.7795 268.344 39.6465 266.387 37.7925H266.233L264.07 40.11C263.761 40.3675 263.658 40.4705 263.4 40.4705H262.937C262.576 40.4705 262.525 40.3675 262.525 40.0585V7.7165C262.525 3.8025 262.473 3.4935 261.186 3.4935L258.662 3.442C258.353 3.442 258.25 3.339 258.25 3.03V2.3605C258.25 2.0515 258.353 2 258.662 2H266.748C267.057 2 267.211 2.206 267.211 2.618V17.7075H267.314C269.168 14.7205 271.898 13.1755 275.606 13.1755C281.271 13.1755 285.7 17.965 285.7 26.514ZM280.292 26.9775C280.292 19.4585 277.872 15.596 273.597 15.596C270.456 15.596 268.602 17.3985 267.211 20.0765V36.093C268.396 37.7925 270.559 38.9255 273.185 38.9255C278.85 38.9255 280.292 33.827 280.292 26.9775Z" fill="#191917"/>
<path d="M255.607 30.1705C255.607 37.329 248.551 40.11 241.702 40.11H228.003C227.694 40.11 227.591 40.0585 227.591 39.7495V38.977C227.591 38.668 227.694 38.565 228.003 38.565L230.681 38.5135C231.917 38.462 231.968 38.153 231.968 34.239V11.2185C231.968 7.30453 231.917 6.99554 230.681 6.94403L228.003 6.89253C227.694 6.89253 227.591 6.78953 227.591 6.48053V5.70803C227.591 5.39903 227.694 5.34753 228.003 5.34753H240.466C246.028 5.34753 253.65 6.42903 253.65 13.536C253.65 18.171 250.096 20.437 245.204 21.6215V21.7245C249.839 21.879 255.607 23.6815 255.607 30.1705ZM247.727 13.9995C247.727 8.43753 245.204 7.15003 240.826 7.15003H237.479V21.158H240.466C245.461 21.158 247.727 19.2525 247.727 13.9995ZM249.375 30.634C249.375 25.072 247.058 22.9605 240.26 22.9605H237.479V38.3075H242.011C246.903 38.3075 249.375 36.093 249.375 30.634Z" fill="#191917"/>
<path d="M198.605 40.7236C196.946 40.7236 195.44 40.4111 194.088 39.7861C192.736 39.1498 191.662 38.235 190.867 37.0418C190.071 35.8373 189.673 34.3827 189.673 32.6782C189.673 31.1782 189.969 29.9623 190.56 29.0305C191.151 28.0873 191.94 27.3486 192.929 26.8146C193.918 26.2805 195.009 25.8827 196.202 25.6214C197.406 25.3486 198.617 25.1327 199.832 24.9736C201.423 24.7691 202.713 24.6157 203.702 24.5134C204.702 24.3998 205.429 24.2123 205.884 23.9509C206.349 23.6896 206.582 23.235 206.582 22.5873V22.4509C206.582 20.7691 206.122 19.4623 205.202 18.5305C204.293 17.5986 202.912 17.1327 201.06 17.1327C199.139 17.1327 197.634 17.5532 196.543 18.3941C195.452 19.235 194.685 20.1327 194.242 21.0873L190.423 19.7236C191.105 18.1327 192.014 16.8941 193.151 16.0077C194.298 15.11 195.548 14.485 196.901 14.1327C198.264 13.7691 199.605 13.5873 200.923 13.5873C201.764 13.5873 202.73 13.6896 203.821 13.8941C204.923 14.0873 205.986 14.4907 207.009 15.1043C208.043 15.718 208.901 16.6441 209.582 17.8827C210.264 19.1214 210.605 20.7805 210.605 22.86V40.11H206.582V36.5646H206.378C206.105 37.1327 205.651 37.7407 205.014 38.3884C204.378 39.0361 203.531 39.5873 202.474 40.0418C201.418 40.4964 200.128 40.7236 198.605 40.7236ZM199.219 37.11C200.81 37.11 202.151 36.7975 203.242 36.1725C204.344 35.5475 205.173 34.7407 205.73 33.7521C206.298 32.7634 206.582 31.7236 206.582 30.6327V26.9509C206.412 27.1555 206.037 27.343 205.457 27.5134C204.889 27.6725 204.23 27.8146 203.48 27.9396C202.742 28.0532 202.02 28.1555 201.315 28.2464C200.622 28.3259 200.06 28.3941 199.628 28.4509C198.582 28.5873 197.605 28.8089 196.696 29.1157C195.798 29.4111 195.071 29.86 194.514 30.4623C193.969 31.0532 193.696 31.86 193.696 32.8827C193.696 34.2805 194.213 35.3373 195.247 36.0532C196.293 36.7577 197.617 37.11 199.219 37.11Z" fill="#191917"/>
<path d="M160.227 40.11V5.20093H172.432C174.863 5.20093 176.869 5.62138 178.449 6.46229C180.028 7.29184 181.204 8.41116 181.977 9.82025C182.75 11.218 183.136 12.7691 183.136 14.4737C183.136 15.9737 182.869 17.2123 182.335 18.1896C181.812 19.1668 181.119 19.9396 180.255 20.5077C179.403 21.0759 178.477 21.4964 177.477 21.7691V22.11C178.545 22.1782 179.619 22.5532 180.699 23.235C181.778 23.9168 182.682 24.8941 183.409 26.1668C184.136 27.4396 184.5 28.9964 184.5 30.8373C184.5 32.5873 184.102 34.1612 183.307 35.5589C182.511 36.9566 181.255 38.0646 179.54 38.8827C177.824 39.7009 175.591 40.11 172.841 40.11H160.227ZM164.454 36.36H172.841C175.602 36.36 177.562 35.8259 178.721 34.7577C179.892 33.6782 180.477 32.3714 180.477 30.8373C180.477 29.6555 180.176 28.5646 179.574 27.5646C178.971 26.5532 178.113 25.7464 177 25.1441C175.886 24.5305 174.568 24.2237 173.045 24.2237H164.454V36.36ZM164.454 20.5418H172.295C173.568 20.5418 174.716 20.2918 175.738 19.7918C176.773 19.2918 177.591 18.5873 178.193 17.6782C178.807 16.7691 179.113 15.7009 179.113 14.4737C179.113 12.9396 178.579 11.6384 177.511 10.5702C176.443 9.4907 174.75 8.95093 172.432 8.95093H164.454V20.5418Z" fill="#191917"/>
</svg>
