<svg width="296" height="45" viewBox="0 0 296 45" fill="none" xmlns="http://www.w3.org/2000/svg">
<line x1="156" y1="39.99" x2="296" y2="39.99" stroke="#1683BB"/>
<line y1="39.99" x2="140" y2="39.99" stroke="#1683BB"/>
<line x1="156" y1="11.99" x2="296" y2="11.99" stroke="#BFB5A9"/>
<line y1="12.99" x2="140" y2="12.99" stroke="#BFB5A9"/>
<line y1="17.99" x2="140" y2="17.99" stroke="#FF3D5D" stroke-opacity="0.7"/>
<line y1="-0.5" x2="140" y2="-0.5" transform="matrix(1 0.000301291 -2.57567e-05 1 156 4.48999)" stroke="#1683BB"/>
<line y1="-0.5" x2="140" y2="-0.5" transform="matrix(1 0.000301291 -2.57567e-05 1 0 4.48999)" stroke="#1683BB"/>
<path d="M110.53 30.8799L116.777 28.6224C117.565 28.3599 117.67 27.8874 117.67 27.0999L117.722 24.6849C117.775 22.7424 117.145 20.1174 113.89 20.1174C112.42 20.1174 110.635 20.8524 110.53 22.4799C110.477 23.3199 110.425 23.9499 110.005 24.2649C109.217 24.8949 107.8 25.2624 107.012 25.2624C106.54 25.2624 106.277 24.9999 106.277 24.5274C106.277 21.7974 112.21 18.0699 116.042 18.0699C119.822 18.0699 121.66 20.2749 121.502 24.2124L121.187 33.3474C121.082 35.7624 121.555 37.9149 123.602 37.9149C124.127 37.9149 124.6 37.7574 124.915 37.5999C125.177 37.4424 125.44 37.2324 125.597 37.2324C125.807 37.2324 125.965 37.5474 125.965 37.9149C125.965 38.1774 124.127 40.2249 121.555 40.2249C120.295 40.2249 119.035 39.7524 118.142 38.5974C117.932 38.2824 117.617 37.8624 117.302 37.8624C116.935 37.8624 116.305 38.3349 115.255 38.9124C114.1 39.5424 112.945 40.2249 111.475 40.2249C109.952 40.2249 108.692 39.8049 107.8 39.0174C106.802 38.1249 106.172 36.8124 106.172 35.3424C106.172 33.2949 107.17 32.0874 110.53 30.8799ZM110.215 34.7124C110.215 35.6049 110.845 37.8624 113.522 37.8624C114.572 37.8624 116.2 37.0749 116.725 36.5499C117.355 35.9199 117.355 35.1849 117.407 34.0824L117.512 30.9849C117.512 30.4074 117.302 30.3024 116.987 30.3024C116.672 30.3024 115.78 30.5124 114.835 30.8274C111.737 31.8774 110.215 32.6649 110.215 34.7124Z" fill="#191917"/>
<path d="M95.3025 34.45L92.9925 27.31C92.625 26.155 92.415 25.9975 90.84 25.9975H82.9125C81.6 25.9975 81.285 26.155 80.9175 27.2575L79.08 32.77C78.2925 35.1325 77.925 36.55 77.925 37.1275C77.925 37.7575 78.1875 38.0725 79.4475 38.1775L81.18 38.335C81.5475 38.5975 81.5475 39.4375 81.075 39.6475C79.71 39.5425 78.0825 39.5425 75.615 39.49C73.8825 39.49 71.9925 39.595 70.575 39.6475C70.26 39.4375 70.155 38.5975 70.47 38.335L72.2025 38.1775C73.4625 38.0725 74.6175 37.495 75.3525 35.605C76.2975 33.19 77.7675 29.7775 79.9725 23.8975L85.3275 9.7225C86.0625 7.8325 86.3775 6.835 86.22 5.995C87.48 5.6275 88.3725 4.6825 88.95 4C89.265 4 89.6325 4.105 89.7375 4.4725C90.42 6.7825 91.26 9.1975 92.0475 11.5075L99.24 32.6125C100.762 37.1275 101.445 37.915 103.702 38.1775L105.12 38.335C105.487 38.5975 105.382 39.4375 105.12 39.6475C102.967 39.5425 101.13 39.49 98.7675 39.49C96.2475 39.49 94.2525 39.595 92.73 39.6475C92.31 39.4375 92.2575 38.5975 92.625 38.335L94.1475 38.1775C95.25 38.0725 95.985 37.7575 95.985 37.2325C95.985 36.655 95.7225 35.71 95.3025 34.45ZM85.905 13.5025L82.5975 22.6375C82.1775 23.845 82.23 23.8975 83.7 23.8975H90.1575C91.68 23.8975 91.785 23.6875 91.3125 22.27L88.4775 13.7125C88.0575 12.4525 87.585 11.035 87.27 10.405H87.165C87.0075 10.6675 86.4825 11.9275 85.905 13.5025Z" fill="#191917"/>
<path d="M43.8239 40.1036C42.1648 40.1036 40.6591 39.7911 39.3069 39.1661C37.9546 38.5298 36.8807 37.615 36.0853 36.4218C35.2898 35.2173 34.8921 33.7627 34.8921 32.0582C34.8921 30.5582 35.1875 29.3423 35.7785 28.4105C36.3694 27.4673 37.1591 26.7286 38.1478 26.1946C39.1364 25.6605 40.2273 25.2627 41.4205 25.0014C42.625 24.7287 43.8353 24.5127 45.0512 24.3536C46.6421 24.1491 47.9319 23.9957 48.9205 23.8934C49.9205 23.7798 50.6478 23.5923 51.1023 23.3309C51.5682 23.0696 51.8012 22.615 51.8012 21.9673V21.8309C51.8012 20.1491 51.341 18.8423 50.4205 17.9105C49.5114 16.9786 48.1307 16.5127 46.2785 16.5127C44.358 16.5127 42.8523 16.9332 41.7614 17.7741C40.6705 18.615 39.9035 19.5127 39.4603 20.4673L35.6421 19.1036C36.3239 17.5127 37.233 16.2741 38.3694 15.3877C39.5171 14.49 40.7671 13.865 42.1194 13.5127C43.483 13.1491 44.8239 12.9673 46.1421 12.9673C46.983 12.9673 47.9489 13.0696 49.0398 13.2741C50.1421 13.4673 51.2046 13.8707 52.2273 14.4843C53.2614 15.098 54.1194 16.0241 54.8012 17.2627C55.483 18.5014 55.8239 20.1605 55.8239 22.24V39.49H51.8012V35.9446H51.5966C51.3239 36.5127 50.8694 37.1207 50.233 37.7684C49.5966 38.4161 48.75 38.9673 47.6932 39.4218C46.6364 39.8764 45.3466 40.1036 43.8239 40.1036ZM44.4375 36.49C46.0285 36.49 47.3694 36.1775 48.4603 35.5525C49.5625 34.9275 50.3921 34.1207 50.9489 33.1321C51.5171 32.1434 51.8012 31.1037 51.8012 30.0127V26.3309C51.6307 26.5355 51.2557 26.723 50.6762 26.8934C50.108 27.0525 49.4489 27.1946 48.6989 27.3196C47.9603 27.4332 47.2387 27.5355 46.5341 27.6264C45.841 27.7059 45.2785 27.7741 44.8466 27.8309C43.8012 27.9673 42.8239 28.1889 41.9148 28.4957C41.0171 28.7911 40.2898 29.24 39.733 29.8423C39.1875 30.4332 38.9148 31.24 38.9148 32.2627C38.9148 33.6605 39.4319 34.7173 40.466 35.4332C41.5114 36.1377 42.8353 36.49 44.4375 36.49Z" fill="#191917"/>
<path d="M5.65887 39.49H1.22705L14.0452 4.58093H18.4089L31.2271 39.49H26.7952L16.3634 10.1037H16.0907L5.65887 39.49ZM7.29523 25.8537H25.1589V29.6037H7.29523V25.8537Z" fill="#191917"/>
<path d="M282.817 34.492C282.817 37.246 283.225 38.266 284.398 38.266C285.265 38.266 285.826 37.552 286.183 36.787C286.285 36.532 286.387 36.43 286.642 36.532L287.05 36.736C287.305 36.838 287.356 36.991 287.203 37.297C286.54 38.929 285.265 40.153 283.123 40.153C280.216 40.153 278.686 38.47 278.584 35.206H278.482C276.544 38.521 274.096 40.153 270.424 40.153C266.701 40.153 263.59 38.062 263.59 33.676C263.59 29.341 265.783 27.454 271.75 25.618C278.176 23.68 278.176 23.323 278.176 21.742V20.467C278.176 16.081 275.626 14.653 272.77 14.653C271.138 14.653 269.761 15.112 268.639 15.826C269.149 16.897 269.353 17.968 269.353 18.784C269.353 20.11 268.894 21.13 267.262 21.13C265.681 21.13 264.661 20.467 264.661 18.784C264.661 15.928 269.047 12.817 274.096 12.817C278.788 12.817 282.817 15.367 282.817 21.13V34.492ZM278.176 33.778V25.057C276.34 25.567 274.351 26.281 272.719 26.995C269.965 28.27 268.741 29.8 268.741 32.809C268.741 35.512 269.914 37.756 272.617 37.756C275.065 37.756 276.952 36.124 278.176 33.778Z" fill="#191917"/>
<path d="M261.642 39.49H248.688C248.382 39.49 248.28 39.439 248.28 39.133V38.368C248.28 38.062 248.382 38.011 248.688 37.96L250.422 37.909C251.544 37.858 252.156 37.705 252.156 36.736C252.156 35.869 251.697 34.339 250.728 31.738L248.994 26.944H237.264L236.958 27.76C236.142 30.055 235.275 32.809 235.275 34.9C235.275 36.838 236.142 37.807 237.927 37.909L239.355 37.96C239.661 38.011 239.763 38.062 239.763 38.368V39.133C239.763 39.439 239.661 39.49 239.355 39.49H228.288C227.982 39.49 227.88 39.439 227.88 39.133V38.317C227.88 38.011 228.033 37.96 228.288 37.96L228.9 37.858C230.328 37.705 230.736 37.348 232.011 34.645C232.674 33.217 233.796 30.31 234.612 28.168L243.537 4.80998C243.639 4.55498 243.69 4.40198 244.098 4.40198H245.475C245.832 4.40198 245.934 4.45298 246.036 4.80998L256.746 31.738C258.939 37.348 259.347 37.807 260.928 37.909L261.642 37.96C261.948 38.011 262.05 38.062 262.05 38.368V39.133C262.05 39.439 261.948 39.49 261.642 39.49ZM248.382 25.21L243.231 10.981H243.18L237.927 25.21H248.382Z" fill="#191917"/>
<path d="M199.824 40.1036C198.165 40.1036 196.659 39.7911 195.307 39.1661C193.955 38.5298 192.881 37.615 192.085 36.4218C191.29 35.2173 190.892 33.7627 190.892 32.0582C190.892 30.5582 191.188 29.3423 191.778 28.4105C192.369 27.4673 193.159 26.7286 194.148 26.1946C195.136 25.6605 196.227 25.2627 197.421 25.0014C198.625 24.7287 199.835 24.5127 201.051 24.3536C202.642 24.1491 203.932 23.9957 204.921 23.8934C205.921 23.7798 206.648 23.5923 207.102 23.3309C207.568 23.0696 207.801 22.615 207.801 21.9673V21.8309C207.801 20.1491 207.341 18.8423 206.421 17.9105C205.511 16.9786 204.131 16.5127 202.278 16.5127C200.358 16.5127 198.852 16.9332 197.761 17.7741C196.671 18.615 195.903 19.5127 195.46 20.4673L191.642 19.1036C192.324 17.5127 193.233 16.2741 194.369 15.3877C195.517 14.49 196.767 13.865 198.119 13.5127C199.483 13.1491 200.824 12.9673 202.142 12.9673C202.983 12.9673 203.949 13.0696 205.04 13.2741C206.142 13.4673 207.205 13.8707 208.227 14.4843C209.261 15.098 210.119 16.0241 210.801 17.2627C211.483 18.5014 211.824 20.1605 211.824 22.24V39.49H207.801V35.9446H207.597C207.324 36.5127 206.869 37.1207 206.233 37.7684C205.597 38.4161 204.75 38.9673 203.693 39.4218C202.636 39.8764 201.347 40.1036 199.824 40.1036ZM200.438 36.49C202.028 36.49 203.369 36.1775 204.46 35.5525C205.563 34.9275 206.392 34.1207 206.949 33.1321C207.517 32.1434 207.801 31.1037 207.801 30.0127V26.3309C207.631 26.5355 207.256 26.723 206.676 26.8934C206.108 27.0525 205.449 27.1946 204.699 27.3196C203.96 27.4332 203.239 27.5355 202.534 27.6264C201.841 27.7059 201.278 27.7741 200.847 27.8309C199.801 27.9673 198.824 28.1889 197.915 28.4957C197.017 28.7911 196.29 29.24 195.733 29.8423C195.188 30.4332 194.915 31.24 194.915 32.2627C194.915 33.6605 195.432 34.7173 196.466 35.4332C197.511 36.1377 198.835 36.49 200.438 36.49Z" fill="#191917"/>
<path d="M161.659 39.49H157.227L170.045 4.58093H174.409L187.227 39.49H182.795L172.363 10.1037H172.091L161.659 39.49ZM163.295 25.8537H181.159V29.6037H163.295V25.8537Z" fill="#191917"/>
</svg>
