<svg width="16" height="16" viewBox="0 0 16 16" fill="none" xmlns="http://www.w3.org/2000/svg">
<circle cx="8" cy="8" r="5.5" stroke="#B66A12"/>
<path d="M7.5 9.3267V9.27273C7.50379 8.92045 7.53883 8.64015 7.60511 8.43182C7.6733 8.22348 7.76989 8.05492 7.89489 7.92614C8.01989 7.79735 8.17045 7.67992 8.34659 7.57386C8.46023 7.50189 8.5625 7.4214 8.65341 7.33239C8.74432 7.24337 8.81629 7.1411 8.86932 7.02557C8.92235 6.91004 8.94886 6.7822 8.94886 6.64205C8.94886 6.47348 8.90909 6.32765 8.82955 6.20455C8.75 6.08144 8.64394 5.98674 8.51136 5.92045C8.38068 5.85227 8.23485 5.81818 8.07386 5.81818C7.92803 5.81818 7.78883 5.84848 7.65625 5.90909C7.52367 5.9697 7.41383 6.06439 7.3267 6.19318C7.23958 6.32008 7.18939 6.4839 7.17614 6.68466H6.3125C6.32576 6.34375 6.41193 6.05587 6.57102 5.82102C6.73011 5.58428 6.94034 5.4053 7.2017 5.28409C7.46496 5.16288 7.75568 5.10227 8.07386 5.10227C8.42235 5.10227 8.72727 5.16761 8.98864 5.2983C9.25 5.42708 9.45265 5.60795 9.59659 5.84091C9.74242 6.07197 9.81534 6.34186 9.81534 6.65057C9.81534 6.86269 9.7822 7.05398 9.71591 7.22443C9.64962 7.39299 9.55492 7.54356 9.43182 7.67614C9.31061 7.80871 9.16477 7.92614 8.99432 8.02841C8.83333 8.12879 8.70265 8.23295 8.60227 8.34091C8.50379 8.44886 8.43182 8.5767 8.38636 8.72443C8.34091 8.87216 8.31629 9.05492 8.3125 9.27273V9.3267H7.5ZM7.92898 11.054C7.77367 11.054 7.64015 10.9991 7.52841 10.8892C7.41667 10.7775 7.3608 10.643 7.3608 10.4858C7.3608 10.3305 7.41667 10.1979 7.52841 10.0881C7.64015 9.97633 7.77367 9.92045 7.92898 9.92045C8.08239 9.92045 8.21496 9.97633 8.3267 10.0881C8.44034 10.1979 8.49716 10.3305 8.49716 10.4858C8.49716 10.59 8.47064 10.6856 8.41761 10.7727C8.36648 10.858 8.2983 10.9261 8.21307 10.9773C8.12784 11.0284 8.03314 11.054 7.92898 11.054Z" fill="#B66A12"/>
</svg>
